<mxfile host="Electron" modified="2023-05-03T11:56:08.704Z" agent="Mozilla/5.0 (X11; Linux x86_64) AppleWebKit/537.36 (KHTML, like Gecko) draw.io/21.2.1 Chrome/112.0.5615.87 Electron/24.1.2 Safari/537.36" etag="tC8RBrhQNsR_IJlpxIqL" version="21.2.1" type="device">
  <diagram name="第 1 页" id="a4E338RCJh6ERv49_dQT">
    <mxGraphModel dx="1115" dy="753" grid="1" gridSize="10" guides="1" tooltips="1" connect="1" arrows="1" fold="1" page="1" pageScale="1" pageWidth="827" pageHeight="1169" math="0" shadow="0">
      <root>
        <mxCell id="0" />
        <mxCell id="1" parent="0" />
        <mxCell id="johgHy1YVOJJbBymYT7h-26" value="kmem_cache_alloc 开始" style="rounded=1;labelBackgroundColor=none;fontFamily=宋体;fillColor=default;strokeWidth=1;" vertex="1" parent="1">
          <mxGeometry x="24" y="60" width="130" height="40" as="geometry" />
        </mxCell>
        <mxCell id="johgHy1YVOJJbBymYT7h-39" style="edgeStyle=orthogonalEdgeStyle;rounded=0;orthogonalLoop=1;jettySize=auto;html=1;exitX=0.5;exitY=1;exitDx=0;exitDy=0;exitPerimeter=0;strokeWidth=1;" edge="1" parent="1" source="johgHy1YVOJJbBymYT7h-37">
          <mxGeometry relative="1" as="geometry">
            <mxPoint x="89" y="250" as="targetPoint" />
          </mxGeometry>
        </mxCell>
        <mxCell id="johgHy1YVOJJbBymYT7h-37" value="objp_cache 是否为空" style="strokeWidth=1;html=1;shape=mxgraph.flowchart.decision;whiteSpace=wrap;" vertex="1" parent="1">
          <mxGeometry x="4" y="140" width="170" height="70" as="geometry" />
        </mxCell>
        <mxCell id="johgHy1YVOJJbBymYT7h-38" style="edgeStyle=orthogonalEdgeStyle;rounded=0;orthogonalLoop=1;jettySize=auto;html=1;exitX=0.5;exitY=1;exitDx=0;exitDy=0;entryX=0.5;entryY=0;entryDx=0;entryDy=0;entryPerimeter=0;strokeWidth=1;" edge="1" parent="1" source="johgHy1YVOJJbBymYT7h-26" target="johgHy1YVOJJbBymYT7h-37">
          <mxGeometry relative="1" as="geometry" />
        </mxCell>
        <mxCell id="johgHy1YVOJJbBymYT7h-40" value="&lt;font style=&quot;font-size: 14px;&quot;&gt;Y&lt;/font&gt;" style="text;html=1;align=center;verticalAlign=middle;resizable=0;points=[];autosize=1;strokeColor=none;fillColor=none;strokeWidth=1;" vertex="1" parent="1">
          <mxGeometry x="89" y="210" width="30" height="30" as="geometry" />
        </mxCell>
        <mxCell id="johgHy1YVOJJbBymYT7h-43" value="摘取 objp_cache 末尾的对象指针并返回" style="rounded=1;whiteSpace=wrap;html=1;absoluteArcSize=1;arcSize=14;strokeWidth=1;" vertex="1" parent="1">
          <mxGeometry x="730" y="229" width="120" height="40" as="geometry" />
        </mxCell>
        <mxCell id="johgHy1YVOJJbBymYT7h-78" style="edgeStyle=orthogonalEdgeStyle;rounded=0;orthogonalLoop=1;jettySize=auto;html=1;entryX=0.5;entryY=0;entryDx=0;entryDy=0;strokeWidth=1;" edge="1" parent="1" source="johgHy1YVOJJbBymYT7h-37" target="johgHy1YVOJJbBymYT7h-43">
          <mxGeometry relative="1" as="geometry">
            <mxPoint x="684" y="220" as="targetPoint" />
            <Array as="points">
              <mxPoint x="234" y="175" />
              <mxPoint x="234" y="80" />
              <mxPoint x="790" y="80" />
            </Array>
          </mxGeometry>
        </mxCell>
        <mxCell id="johgHy1YVOJJbBymYT7h-46" style="edgeStyle=orthogonalEdgeStyle;rounded=0;orthogonalLoop=1;jettySize=auto;html=1;strokeWidth=1;" edge="1" parent="1" source="johgHy1YVOJJbBymYT7h-45">
          <mxGeometry relative="1" as="geometry">
            <mxPoint x="89" y="360" as="targetPoint" />
          </mxGeometry>
        </mxCell>
        <mxCell id="johgHy1YVOJJbBymYT7h-45" value="slab_partial 链表是否为空" style="strokeWidth=1;html=1;shape=mxgraph.flowchart.decision;whiteSpace=wrap;" vertex="1" parent="1">
          <mxGeometry x="4" y="250" width="170" height="70" as="geometry" />
        </mxCell>
        <mxCell id="johgHy1YVOJJbBymYT7h-47" value="Y" style="text;html=1;align=center;verticalAlign=middle;resizable=0;points=[];autosize=1;strokeColor=none;fillColor=none;strokeWidth=1;" vertex="1" parent="1">
          <mxGeometry x="89" y="320" width="30" height="30" as="geometry" />
        </mxCell>
        <mxCell id="johgHy1YVOJJbBymYT7h-49" value="N" style="text;html=1;align=center;verticalAlign=middle;resizable=0;points=[];autosize=1;strokeColor=none;fillColor=none;strokeWidth=1;" vertex="1" parent="1">
          <mxGeometry x="174" y="258" width="30" height="30" as="geometry" />
        </mxCell>
        <mxCell id="johgHy1YVOJJbBymYT7h-51" style="edgeStyle=orthogonalEdgeStyle;rounded=0;orthogonalLoop=1;jettySize=auto;html=1;strokeWidth=1;" edge="1" parent="1" source="johgHy1YVOJJbBymYT7h-50">
          <mxGeometry relative="1" as="geometry">
            <mxPoint x="89" y="480" as="targetPoint" />
          </mxGeometry>
        </mxCell>
        <mxCell id="johgHy1YVOJJbBymYT7h-50" value="slab_empty 链表是否为空" style="strokeWidth=1;html=1;shape=mxgraph.flowchart.decision;whiteSpace=wrap;" vertex="1" parent="1">
          <mxGeometry x="4" y="360" width="170" height="70" as="geometry" />
        </mxCell>
        <mxCell id="johgHy1YVOJJbBymYT7h-52" value="Y" style="text;html=1;align=center;verticalAlign=middle;resizable=0;points=[];autosize=1;strokeColor=none;fillColor=none;strokeWidth=1;" vertex="1" parent="1">
          <mxGeometry x="89" y="428" width="30" height="30" as="geometry" />
        </mxCell>
        <mxCell id="johgHy1YVOJJbBymYT7h-53" value="分配 slab 并将其插入到 slab_partial 链表" style="rounded=1;whiteSpace=wrap;html=1;absoluteArcSize=1;arcSize=14;strokeWidth=1;" vertex="1" parent="1">
          <mxGeometry x="29" y="480" width="120" height="40" as="geometry" />
        </mxCell>
        <mxCell id="johgHy1YVOJJbBymYT7h-55" value="选择表头的 slab" style="rounded=1;whiteSpace=wrap;html=1;absoluteArcSize=1;arcSize=14;strokeWidth=1;" vertex="1" parent="1">
          <mxGeometry x="168" y="480" width="120" height="40" as="geometry" />
        </mxCell>
        <mxCell id="johgHy1YVOJJbBymYT7h-48" style="edgeStyle=orthogonalEdgeStyle;rounded=0;orthogonalLoop=1;jettySize=auto;html=1;entryX=0.5;entryY=0;entryDx=0;entryDy=0;strokeWidth=1;" edge="1" parent="1" source="johgHy1YVOJJbBymYT7h-45" target="johgHy1YVOJJbBymYT7h-55">
          <mxGeometry relative="1" as="geometry">
            <mxPoint x="214" y="400" as="targetPoint" />
            <Array as="points">
              <mxPoint x="228" y="285" />
            </Array>
          </mxGeometry>
        </mxCell>
        <mxCell id="johgHy1YVOJJbBymYT7h-61" value="objp_cache-&amp;gt;touched 是否为 1" style="strokeWidth=1;html=1;shape=mxgraph.flowchart.decision;whiteSpace=wrap;" vertex="1" parent="1">
          <mxGeometry x="364" y="130" width="180" height="80" as="geometry" />
        </mxCell>
        <mxCell id="johgHy1YVOJJbBymYT7h-54" style="edgeStyle=orthogonalEdgeStyle;rounded=0;orthogonalLoop=1;jettySize=auto;html=1;entryX=0.5;entryY=0;entryDx=0;entryDy=0;entryPerimeter=0;strokeWidth=1;" edge="1" parent="1" source="johgHy1YVOJJbBymYT7h-53" target="johgHy1YVOJJbBymYT7h-61">
          <mxGeometry relative="1" as="geometry">
            <mxPoint x="89" y="580" as="targetPoint" />
            <Array as="points">
              <mxPoint x="89" y="610" />
              <mxPoint x="324" y="610" />
              <mxPoint x="324" y="110" />
              <mxPoint x="454" y="110" />
            </Array>
          </mxGeometry>
        </mxCell>
        <mxCell id="johgHy1YVOJJbBymYT7h-58" style="edgeStyle=orthogonalEdgeStyle;rounded=0;orthogonalLoop=1;jettySize=auto;html=1;entryX=0.5;entryY=0;entryDx=0;entryDy=0;entryPerimeter=0;strokeWidth=1;" edge="1" parent="1" source="johgHy1YVOJJbBymYT7h-55" target="johgHy1YVOJJbBymYT7h-61">
          <mxGeometry relative="1" as="geometry">
            <mxPoint x="89" y="580" as="targetPoint" />
            <Array as="points">
              <mxPoint x="228" y="610" />
              <mxPoint x="324" y="610" />
              <mxPoint x="324" y="110" />
              <mxPoint x="454" y="110" />
            </Array>
          </mxGeometry>
        </mxCell>
        <mxCell id="johgHy1YVOJJbBymYT7h-65" value="N" style="text;html=1;align=center;verticalAlign=middle;resizable=0;points=[];autosize=1;strokeColor=none;fillColor=none;strokeWidth=1;" vertex="1" parent="1">
          <mxGeometry x="544" y="140" width="30" height="30" as="geometry" />
        </mxCell>
        <mxCell id="johgHy1YVOJJbBymYT7h-69" style="edgeStyle=orthogonalEdgeStyle;rounded=0;orthogonalLoop=1;jettySize=auto;html=1;strokeWidth=1;" edge="1" parent="1" source="johgHy1YVOJJbBymYT7h-68">
          <mxGeometry relative="1" as="geometry">
            <mxPoint x="454" y="400" as="targetPoint" />
          </mxGeometry>
        </mxCell>
        <mxCell id="johgHy1YVOJJbBymYT7h-68" value="分配 objp_cache-&amp;gt;batch_count 个对象" style="rounded=1;whiteSpace=wrap;html=1;absoluteArcSize=1;arcSize=14;strokeWidth=1;" vertex="1" parent="1">
          <mxGeometry x="366.19" y="300" width="173.81" height="40" as="geometry" />
        </mxCell>
        <mxCell id="johgHy1YVOJJbBymYT7h-67" style="edgeStyle=orthogonalEdgeStyle;rounded=0;orthogonalLoop=1;jettySize=auto;html=1;exitX=0.5;exitY=1;exitDx=0;exitDy=0;exitPerimeter=0;entryX=0.5;entryY=0;entryDx=0;entryDy=0;strokeWidth=1;" edge="1" parent="1" source="johgHy1YVOJJbBymYT7h-61" target="johgHy1YVOJJbBymYT7h-68">
          <mxGeometry relative="1" as="geometry">
            <mxPoint x="454" y="300" as="targetPoint" />
            <Array as="points" />
          </mxGeometry>
        </mxCell>
        <mxCell id="johgHy1YVOJJbBymYT7h-73" style="edgeStyle=orthogonalEdgeStyle;rounded=0;orthogonalLoop=1;jettySize=auto;html=1;strokeWidth=1;" edge="1" parent="1" source="johgHy1YVOJJbBymYT7h-71">
          <mxGeometry relative="1" as="geometry">
            <mxPoint x="454.0050000000001" y="490" as="targetPoint" />
          </mxGeometry>
        </mxCell>
        <mxCell id="johgHy1YVOJJbBymYT7h-71" value="将分配的对象的指针压入objp_cache 末尾" style="rounded=1;whiteSpace=wrap;html=1;absoluteArcSize=1;arcSize=14;strokeWidth=1;" vertex="1" parent="1">
          <mxGeometry x="368.38" y="400" width="171.25" height="40" as="geometry" />
        </mxCell>
        <mxCell id="johgHy1YVOJJbBymYT7h-84" style="edgeStyle=orthogonalEdgeStyle;rounded=0;orthogonalLoop=1;jettySize=auto;html=1;exitX=0.5;exitY=1;exitDx=0;exitDy=0;entryX=0.5;entryY=0;entryDx=0;entryDy=0;" edge="1" parent="1" source="johgHy1YVOJJbBymYT7h-72" target="johgHy1YVOJJbBymYT7h-71">
          <mxGeometry relative="1" as="geometry">
            <Array as="points">
              <mxPoint x="579" y="370" />
              <mxPoint x="454" y="370" />
            </Array>
          </mxGeometry>
        </mxCell>
        <mxCell id="johgHy1YVOJJbBymYT7h-72" value="分配 INACTIVE_BATCH_COUNT 个对象" style="rounded=1;whiteSpace=wrap;html=1;absoluteArcSize=1;arcSize=14;strokeWidth=1;" vertex="1" parent="1">
          <mxGeometry x="484" y="230" width="196" height="40" as="geometry" />
        </mxCell>
        <mxCell id="johgHy1YVOJJbBymYT7h-83" style="edgeStyle=orthogonalEdgeStyle;rounded=0;orthogonalLoop=1;jettySize=auto;html=1;exitX=1;exitY=0.5;exitDx=0;exitDy=0;exitPerimeter=0;entryX=0.5;entryY=0;entryDx=0;entryDy=0;" edge="1" parent="1" source="johgHy1YVOJJbBymYT7h-61" target="johgHy1YVOJJbBymYT7h-72">
          <mxGeometry relative="1" as="geometry" />
        </mxCell>
        <mxCell id="johgHy1YVOJJbBymYT7h-88" style="edgeStyle=orthogonalEdgeStyle;rounded=0;orthogonalLoop=1;jettySize=auto;html=1;entryX=0.5;entryY=0;entryDx=0;entryDy=0;entryPerimeter=0;" edge="1" parent="1" source="johgHy1YVOJJbBymYT7h-74" target="johgHy1YVOJJbBymYT7h-89">
          <mxGeometry relative="1" as="geometry">
            <mxPoint x="456.19000000000005" y="560" as="targetPoint" />
          </mxGeometry>
        </mxCell>
        <mxCell id="johgHy1YVOJJbBymYT7h-74" value="objp_cache-&amp;gt;touch = 1" style="rounded=1;whiteSpace=wrap;html=1;absoluteArcSize=1;arcSize=14;strokeWidth=1;" vertex="1" parent="1">
          <mxGeometry x="368.38" y="490" width="175.62" height="40" as="geometry" />
        </mxCell>
        <mxCell id="johgHy1YVOJJbBymYT7h-79" value="N" style="text;html=1;align=center;verticalAlign=middle;resizable=0;points=[];autosize=1;strokeColor=none;fillColor=none;strokeWidth=1;" vertex="1" parent="1">
          <mxGeometry x="189" y="148" width="30" height="30" as="geometry" />
        </mxCell>
        <mxCell id="johgHy1YVOJJbBymYT7h-81" value="kmem_cache_alloc 结束" style="strokeWidth=1;html=1;shape=mxgraph.flowchart.terminator;whiteSpace=wrap;" vertex="1" parent="1">
          <mxGeometry x="735" y="341" width="110" height="70" as="geometry" />
        </mxCell>
        <mxCell id="johgHy1YVOJJbBymYT7h-82" style="edgeStyle=orthogonalEdgeStyle;rounded=0;orthogonalLoop=1;jettySize=auto;html=1;exitX=0.5;exitY=1;exitDx=0;exitDy=0;entryX=0.5;entryY=0;entryDx=0;entryDy=0;entryPerimeter=0;strokeWidth=1;" edge="1" parent="1" source="johgHy1YVOJJbBymYT7h-43" target="johgHy1YVOJJbBymYT7h-81">
          <mxGeometry relative="1" as="geometry" />
        </mxCell>
        <mxCell id="johgHy1YVOJJbBymYT7h-90" style="edgeStyle=orthogonalEdgeStyle;rounded=0;orthogonalLoop=1;jettySize=auto;html=1;entryX=0.5;entryY=0;entryDx=0;entryDy=0;" edge="1" parent="1" source="johgHy1YVOJJbBymYT7h-89" target="johgHy1YVOJJbBymYT7h-43">
          <mxGeometry relative="1" as="geometry">
            <mxPoint x="720" y="190" as="targetPoint" />
            <Array as="points">
              <mxPoint x="700" y="610" />
              <mxPoint x="700" y="80" />
              <mxPoint x="790" y="80" />
            </Array>
          </mxGeometry>
        </mxCell>
        <mxCell id="johgHy1YVOJJbBymYT7h-91" style="edgeStyle=orthogonalEdgeStyle;rounded=0;orthogonalLoop=1;jettySize=auto;html=1;entryX=0.5;entryY=0;entryDx=0;entryDy=0;" edge="1" parent="1" source="johgHy1YVOJJbBymYT7h-89" target="johgHy1YVOJJbBymYT7h-94">
          <mxGeometry relative="1" as="geometry">
            <mxPoint x="456.19000000000005" y="700" as="targetPoint" />
          </mxGeometry>
        </mxCell>
        <mxCell id="johgHy1YVOJJbBymYT7h-89" value="slab 是否已满" style="strokeWidth=1;html=1;shape=mxgraph.flowchart.decision;whiteSpace=wrap;" vertex="1" parent="1">
          <mxGeometry x="366.19" y="570" width="180" height="80" as="geometry" />
        </mxCell>
        <mxCell id="johgHy1YVOJJbBymYT7h-92" value="N" style="text;html=1;align=center;verticalAlign=middle;resizable=0;points=[];autosize=1;strokeColor=none;fillColor=none;" vertex="1" parent="1">
          <mxGeometry x="555" y="578" width="30" height="30" as="geometry" />
        </mxCell>
        <mxCell id="johgHy1YVOJJbBymYT7h-93" value="Y" style="text;html=1;align=center;verticalAlign=middle;resizable=0;points=[];autosize=1;strokeColor=none;fillColor=none;" vertex="1" parent="1">
          <mxGeometry x="455" y="658" width="30" height="30" as="geometry" />
        </mxCell>
        <mxCell id="johgHy1YVOJJbBymYT7h-96" style="edgeStyle=orthogonalEdgeStyle;rounded=0;orthogonalLoop=1;jettySize=auto;html=1;entryX=0.5;entryY=0;entryDx=0;entryDy=0;" edge="1" parent="1" source="johgHy1YVOJJbBymYT7h-94" target="johgHy1YVOJJbBymYT7h-43">
          <mxGeometry relative="1" as="geometry">
            <Array as="points">
              <mxPoint x="700" y="720" />
              <mxPoint x="700" y="80" />
              <mxPoint x="790" y="80" />
            </Array>
          </mxGeometry>
        </mxCell>
        <mxCell id="johgHy1YVOJJbBymYT7h-94" value="将 slab 移入 slab_partial 链表" style="rounded=1;whiteSpace=wrap;html=1;absoluteArcSize=1;arcSize=14;strokeWidth=1;" vertex="1" parent="1">
          <mxGeometry x="396.19" y="700" width="120" height="40" as="geometry" />
        </mxCell>
      </root>
    </mxGraphModel>
  </diagram>
</mxfile>
